<?xml version="1.0" encoding="UTF-8"?>
<svg width="344" height="234" viewBox="-4 -4 344 234" xmlns="http://www.w3.org/2000/svg">
<style>
circle{fill:black;r:4.0}line{stroke:black;stroke-width:2.0}
</style>
<line x1="0" y1="4" x2="336" y2="4"/>
<line x1="0" y1="28" x2="336" y2="28"/>
<line x1="0" y1="52" x2="336" y2="52"/>
<line x1="0" y1="76" x2="336" y2="76"/>
<line x1="0" y1="100" x2="336" y2="100"/>
<line x1="0" y1="124" x2="336" y2="124"/>
<line x1="0" y1="148" x2="336" y2="148"/>
<line x1="0" y1="172" x2="336" y2="172"/>
<line x1="0" y1="196" x2="336" y2="196"/>
<line x1="0" y1="220" x2="336" y2="220"/>
<circle cx="24" cy="220"/><circle cx="24" cy="196"/><line x1="24" y1="220" x2="24" y2="196"/>
<circle cx="24" cy="172"/><circle cx="24" cy="148"/><line x1="24" y1="172" x2="24" y2="148"/>
<circle cx="24" cy="124"/><circle cx="24" cy="100"/><line x1="24" y1="124" x2="24" y2="100"/>
<circle cx="24" cy="76"/><circle cx="24" cy="52"/><line x1="24" y1="76" x2="24" y2="52"/>
<circle cx="24" cy="28"/><circle cx="24" cy="4"/><line x1="24" y1="28" x2="24" y2="4"/>
<circle cx="48" cy="172"/><circle cx="48" cy="124"/><line x1="48" y1="172" x2="48" y2="124"/>
<circle cx="48" cy="76"/><circle cx="48" cy="28"/><line x1="48" y1="76" x2="48" y2="28"/>
<circle cx="64" cy="148"/><circle cx="64" cy="100"/><line x1="64" y1="148" x2="64" y2="100"/>
<circle cx="64" cy="52"/><circle cx="64" cy="4"/><line x1="64" y1="52" x2="64" y2="4"/>
<circle cx="88" cy="220"/><circle cx="88" cy="148"/><line x1="88" y1="220" x2="88" y2="148"/>
<circle cx="88" cy="100"/><circle cx="88" cy="4"/><line x1="88" y1="100" x2="88" y2="4"/>
<circle cx="104" cy="196"/><circle cx="104" cy="124"/><line x1="104" y1="196" x2="104" y2="124"/>
<circle cx="104" cy="52"/><circle cx="104" cy="28"/><line x1="104" y1="52" x2="104" y2="28"/>
<circle cx="120" cy="172"/><circle cx="120" cy="76"/><line x1="120" y1="172" x2="120" y2="76"/>
<circle cx="144" cy="220"/><circle cx="144" cy="76"/><line x1="144" y1="220" x2="144" y2="76"/>
<circle cx="160" cy="196"/><circle cx="160" cy="52"/><line x1="160" y1="196" x2="160" y2="52"/>
<circle cx="176" cy="148"/><circle cx="176" cy="28"/><line x1="176" y1="148" x2="176" y2="28"/>
<circle cx="192" cy="124"/><circle cx="192" cy="100"/><line x1="192" y1="124" x2="192" y2="100"/>
<circle cx="216" cy="220"/><circle cx="216" cy="196"/><line x1="216" y1="220" x2="216" y2="196"/>
<circle cx="216" cy="148"/><circle cx="216" cy="76"/><line x1="216" y1="148" x2="216" y2="76"/>
<circle cx="232" cy="124"/><circle cx="232" cy="52"/><line x1="232" y1="124" x2="232" y2="52"/>
<circle cx="248" cy="100"/><circle cx="248" cy="28"/><line x1="248" y1="100" x2="248" y2="28"/>
<circle cx="272" cy="220"/><circle cx="272" cy="172"/><line x1="272" y1="220" x2="272" y2="172"/>
<circle cx="272" cy="124"/><circle cx="272" cy="76"/><line x1="272" y1="124" x2="272" y2="76"/>
<circle cx="272" cy="28"/><circle cx="272" cy="4"/><line x1="272" y1="28" x2="272" y2="4"/>
<circle cx="288" cy="196"/><circle cx="288" cy="148"/><line x1="288" y1="196" x2="288" y2="148"/>
<circle cx="288" cy="100"/><circle cx="288" cy="52"/><line x1="288" y1="100" x2="288" y2="52"/>
<circle cx="312" cy="196"/><circle cx="312" cy="172"/><line x1="312" y1="196" x2="312" y2="172"/>
<circle cx="312" cy="148"/><circle cx="312" cy="124"/><line x1="312" y1="148" x2="312" y2="124"/>
<circle cx="312" cy="100"/><circle cx="312" cy="76"/><line x1="312" y1="100" x2="312" y2="76"/>
<circle cx="312" cy="52"/><circle cx="312" cy="28"/><line x1="312" y1="52" x2="312" y2="28"/>
</svg>
