<?xml version="1.0" encoding="UTF-8"?>
<svg width="200" height="138" viewBox="-4 -4 200 138" xmlns="http://www.w3.org/2000/svg">
<style>
circle{fill:black;r:4.0}line{stroke:black;stroke-width:2.0}
</style>
<line x1="0" y1="4" x2="192" y2="4"/>
<line x1="0" y1="28" x2="192" y2="28"/>
<line x1="0" y1="52" x2="192" y2="52"/>
<line x1="0" y1="76" x2="192" y2="76"/>
<line x1="0" y1="100" x2="192" y2="100"/>
<line x1="0" y1="124" x2="192" y2="124"/>
<circle cx="24" cy="124"/><circle cx="24" cy="100"/><line x1="24" y1="124" x2="24" y2="100"/>
<circle cx="24" cy="76"/><circle cx="24" cy="52"/><line x1="24" y1="76" x2="24" y2="52"/>
<circle cx="24" cy="28"/><circle cx="24" cy="4"/><line x1="24" y1="28" x2="24" y2="4"/>
<circle cx="48" cy="76"/><circle cx="48" cy="28"/><line x1="48" y1="76" x2="48" y2="28"/>
<circle cx="64" cy="52"/><circle cx="64" cy="4"/><line x1="64" y1="52" x2="64" y2="4"/>
<circle cx="88" cy="124"/><circle cx="88" cy="76"/><line x1="88" y1="124" x2="88" y2="76"/>
<circle cx="88" cy="52"/><circle cx="88" cy="28"/><line x1="88" y1="52" x2="88" y2="28"/>
<circle cx="104" cy="100"/><circle cx="104" cy="4"/><line x1="104" y1="100" x2="104" y2="4"/>
<circle cx="128" cy="100"/><circle cx="128" cy="52"/><line x1="128" y1="100" x2="128" y2="52"/>
<circle cx="144" cy="76"/><circle cx="144" cy="28"/><line x1="144" y1="76" x2="144" y2="28"/>
<circle cx="168" cy="100"/><circle cx="168" cy="76"/><line x1="168" y1="100" x2="168" y2="76"/>
<circle cx="168" cy="52"/><circle cx="168" cy="28"/><line x1="168" y1="52" x2="168" y2="28"/>
</svg>
