<?xml version="1.0" encoding="UTF-8"?>
<svg width="296" height="210" viewBox="-4 -4 296 210" xmlns="http://www.w3.org/2000/svg">
<style>
circle{fill:black;r:4.0}line{stroke:black;stroke-width:2.0}
</style>
<line x1="0" y1="4" x2="288" y2="4"/>
<line x1="0" y1="28" x2="288" y2="28"/>
<line x1="0" y1="52" x2="288" y2="52"/>
<line x1="0" y1="76" x2="288" y2="76"/>
<line x1="0" y1="100" x2="288" y2="100"/>
<line x1="0" y1="124" x2="288" y2="124"/>
<line x1="0" y1="148" x2="288" y2="148"/>
<line x1="0" y1="172" x2="288" y2="172"/>
<line x1="0" y1="196" x2="288" y2="196"/>
<circle cx="24" cy="172"/><circle cx="24" cy="148"/><line x1="24" y1="172" x2="24" y2="148"/>
<circle cx="24" cy="124"/><circle cx="24" cy="100"/><line x1="24" y1="124" x2="24" y2="100"/>
<circle cx="24" cy="76"/><circle cx="24" cy="52"/><line x1="24" y1="76" x2="24" y2="52"/>
<circle cx="24" cy="28"/><circle cx="24" cy="4"/><line x1="24" y1="28" x2="24" y2="4"/>
<circle cx="48" cy="196"/><circle cx="48" cy="148"/><line x1="48" y1="196" x2="48" y2="148"/>
<circle cx="48" cy="124"/><circle cx="48" cy="52"/><line x1="48" y1="124" x2="48" y2="52"/>
<circle cx="64" cy="100"/><circle cx="64" cy="28"/><line x1="64" y1="100" x2="64" y2="28"/>
<circle cx="80" cy="76"/><circle cx="80" cy="4"/><line x1="80" y1="76" x2="80" y2="4"/>
<circle cx="104" cy="196"/><circle cx="104" cy="172"/><line x1="104" y1="196" x2="104" y2="172"/>
<circle cx="104" cy="148"/><circle cx="104" cy="28"/><line x1="104" y1="148" x2="104" y2="28"/>
<circle cx="120" cy="124"/><circle cx="120" cy="100"/><line x1="120" y1="124" x2="120" y2="100"/>
<circle cx="120" cy="52"/><circle cx="120" cy="4"/><line x1="120" y1="52" x2="120" y2="4"/>
<circle cx="144" cy="196"/><circle cx="144" cy="52"/><line x1="144" y1="196" x2="144" y2="52"/>
<circle cx="144" cy="28"/><circle cx="144" cy="4"/><line x1="144" y1="28" x2="144" y2="4"/>
<circle cx="160" cy="172"/><circle cx="160" cy="100"/><line x1="160" y1="172" x2="160" y2="100"/>
<circle cx="176" cy="148"/><circle cx="176" cy="76"/><line x1="176" y1="148" x2="176" y2="76"/>
<circle cx="200" cy="196"/><circle cx="200" cy="172"/><line x1="200" y1="196" x2="200" y2="172"/>
<circle cx="200" cy="148"/><circle cx="200" cy="124"/><line x1="200" y1="148" x2="200" y2="124"/>
<circle cx="200" cy="100"/><circle cx="200" cy="76"/><line x1="200" y1="100" x2="200" y2="76"/>
<circle cx="200" cy="52"/><circle cx="200" cy="28"/><line x1="200" y1="52" x2="200" y2="28"/>
<circle cx="224" cy="196"/><circle cx="224" cy="148"/><line x1="224" y1="196" x2="224" y2="148"/>
<circle cx="224" cy="100"/><circle cx="224" cy="52"/><line x1="224" y1="100" x2="224" y2="52"/>
<circle cx="240" cy="172"/><circle cx="240" cy="124"/><line x1="240" y1="172" x2="240" y2="124"/>
<circle cx="240" cy="76"/><circle cx="240" cy="28"/><line x1="240" y1="76" x2="240" y2="28"/>
<circle cx="264" cy="172"/><circle cx="264" cy="148"/><line x1="264" y1="172" x2="264" y2="148"/>
<circle cx="264" cy="124"/><circle cx="264" cy="100"/><line x1="264" y1="124" x2="264" y2="100"/>
<circle cx="264" cy="76"/><circle cx="264" cy="52"/><line x1="264" y1="76" x2="264" y2="52"/>
</svg>
